HIERARCHY
ROOT Beta:Hips
{
	OFFSET 0.00 0.00 0.00
	CHANNELS 6 Xposition Yposition Zposition Yrotation Xrotation Zrotation
	JOINT Beta:Spine
	{
		OFFSET	0.0000	9.2263	1.5771
		CHANNELS 3 Xrotation Yrotation Zrotation
		JOINT Beta:Spine1
		{
			OFFSET	0.0000	16.2540	-0.1656
			CHANNELS 3 Xrotation Yrotation Zrotation
			JOINT Beta:Spine2
			{
				OFFSET	0.0000	13.6396	-1.2923
				CHANNELS 3 Xrotation Yrotation Zrotation
				JOINT Beta:Neck
				{
					OFFSET	0.0000	13.8774	-4.3542
					CHANNELS 3 Xrotation Yrotation Zrotation
					JOINT Beta:Neck1
					{
						OFFSET	0.0000	4.3400	0.9269
						CHANNELS 3 Xrotation Yrotation Zrotation
						JOINT Beta:Head
						{
							OFFSET	0.0000	4.0266	0.8585
							CHANNELS 3 Xrotation Yrotation Zrotation
							End Site
							{
								OFFSET 0.0000 23.0297 0.1231
							}
						}
					}
				}
				JOINT Beta:LeftShoulder
				{
					OFFSET	6.1442	10.1870	-3.7932
					CHANNELS 3 Zrotation Xrotation Yrotation
					JOINT Beta:LeftArm
					{
						OFFSET	12.3191	-1.1130	-1.7935
						CHANNELS 3 Zrotation Xrotation Yrotation
						JOINT Beta:LeftForeArm
						{
							OFFSET	27.6870	0.0000	0.0000
							CHANNELS 3 Xrotation Zrotation Yrotation
							JOINT Beta:LeftHand
							{
								OFFSET	27.8738	0.0000	0.0000
								CHANNELS 3 Zrotation Yrotation Xrotation
								JOINT Beta:LeftHandThumb1
								{
									OFFSET	2.3785	-1.0029	2.6209
									CHANNELS 3 Zrotation Xrotation Yrotation
									JOINT Beta:LeftHandThumb2
									{
										OFFSET	3.3624	-1.0029	2.8398
										CHANNELS 3 Zrotation Xrotation Yrotation
										JOINT Beta:LeftHandThumb3
										{
											OFFSET	4.5018	-1.3445	2.1783
											CHANNELS 3 Zrotation Xrotation Yrotation
											End Site
											{
												OFFSET 2.6000 -1.0000 1.0000
											}
										}
									}
								}
								JOINT Beta:LeftHandMiddle1
								{
									OFFSET	10.4639	0.6148	0.4298
									CHANNELS 3 Zrotation Xrotation Yrotation
									JOINT Beta:LeftHandMiddle2
									{
										OFFSET	5.7921	0.0000	0.0000
										CHANNELS 3 Zrotation Xrotation Yrotation
										JOINT Beta:LeftHandMiddle3
										{
											OFFSET	3.7132	0.0000	0.0000
											CHANNELS 3 Zrotation Xrotation Yrotation
											End Site
											{
												OFFSET 2.3000 0.0000 0.0000
											}
										}
									}
								}
								JOINT Beta:LeftHandIndex1
								{
									OFFSET	10.3945	0.6148	2.7055
									CHANNELS 3 Zrotation Xrotation Yrotation
									JOINT Beta:LeftHandIndex2
									{
										OFFSET	5.5493	0.0000	0.0000
										CHANNELS 3 Zrotation Xrotation Yrotation
										JOINT Beta:LeftHandIndex3
										{
											OFFSET	3.3911	0.0000	0.0000
											CHANNELS 3 Zrotation Xrotation Yrotation
											End Site
											{
												OFFSET 2.5000 0.0000 0.0000
											}
										}
									}
								}
								JOINT Beta:LeftHandRing1
								{
									OFFSET	10.3252	0.3211	-1.8755
									CHANNELS 3 Zrotation Xrotation Yrotation
									JOINT Beta:LeftHandRing2
									{
										OFFSET	5.4452	0.0000	0.0000
										CHANNELS 3 Zrotation Xrotation Yrotation
										JOINT Beta:LeftHandRing3
										{
											OFFSET	3.7132	0.0000	0.0000
											CHANNELS 3 Zrotation Xrotation Yrotation
											End Site
											{
												OFFSET 2.0000 0.0000 0.0000
											}
										}
									}
								}
								JOINT Beta:LeftHandPinky1
								{
									OFFSET	10.0130	-0.0783	-3.9671
									CHANNELS 3 Zrotation Xrotation Yrotation
									JOINT Beta:LeftHandPinky2
									{
										OFFSET	3.6763	0.0000	0.0000
										CHANNELS 3 Zrotation Xrotation Yrotation
										JOINT Beta:LeftHandPinky3
										{
											OFFSET	2.8113	0.0000	0.0000
											CHANNELS 3 Zrotation Xrotation Yrotation
											End Site
											{
												OFFSET 2.9000 0.0000 0.0000
											}
										}
									}
								}
							}
						}
					}
				}
				JOINT Beta:RightShoulder
				{
					OFFSET	-6.1402	10.1870	-3.7932
					CHANNELS 3 Zrotation Xrotation Yrotation
					JOINT Beta:RightArm
					{
						OFFSET	-12.3231	-1.1130	-1.7935
						CHANNELS 3 Zrotation Xrotation Yrotation
						JOINT Beta:RightForeArm
						{
							OFFSET	-27.6870	0.0000	0.0000
							CHANNELS 3 Xrotation Zrotation Yrotation
							JOINT Beta:RightHand
							{
								OFFSET	-27.8738	0.0000	0.0000
								CHANNELS 3 Zrotation Yrotation Xrotation
								JOINT Beta:RightHandThumb1
								{
									OFFSET	-2.5178	-0.9367	2.5137
									CHANNELS 3 Zrotation Xrotation Yrotation
									JOINT Beta:RightHandThumb2
									{
										OFFSET	-3.2638	-1.0870	2.9669
										CHANNELS 3 Zrotation Xrotation Yrotation
										JOINT Beta:RightHandThumb3
										{
											OFFSET	-4.4165	-1.3703	2.1350
											CHANNELS 3 Zrotation Xrotation Yrotation
											End Site
											{
												OFFSET -2.6000 -1.0000 1.0000
											}
										}
									}
								}
								JOINT Beta:RightHandIndex1
								{
									OFFSET	-10.4665	0.4896	2.7120
									CHANNELS 3 Zrotation Xrotation Yrotation
									JOINT Beta:RightHandIndex2
									{
										OFFSET	-5.3768	0.0000	0.0000
										CHANNELS 3 Zrotation Xrotation Yrotation
										JOINT Beta:RightHandIndex3
										{
											OFFSET	-3.3855	0.0000	0.0000
											CHANNELS 3 Zrotation Xrotation Yrotation
											End Site
											{
												OFFSET -2.6000 0.0000 0.0000
											}
										}
									}
								}
								JOINT Beta:RightHandMiddle1
								{
									OFFSET	-10.7596	0.4896	0.4278
									CHANNELS 3 Zrotation Xrotation Yrotation
									JOINT Beta:RightHandMiddle2
									{
										OFFSET	-5.6168	0.0000	0.0000
										CHANNELS 3 Zrotation Xrotation Yrotation
										JOINT Beta:RightHandMiddle3
										{
											OFFSET	-3.7364	0.0000	0.0000
											CHANNELS 3 Zrotation Xrotation Yrotation
											End Site
											{
												OFFSET -2.3000 0.0000 0.0000
											}
										}
									}
								}
								JOINT Beta:RightHandRing1
								{
									OFFSET	-10.4702	0.3879	-1.9363
									CHANNELS 3 Zrotation Xrotation Yrotation
									JOINT Beta:RightHandRing2
									{
										OFFSET	-5.4013	0.0000	0.0000
										CHANNELS 3 Zrotation Xrotation Yrotation
										JOINT Beta:RightHandRing3
										{
											OFFSET	-3.3916	0.0000	0.0000
											CHANNELS 3 Zrotation Xrotation Yrotation
											End Site
											{
												OFFSET -2.2000 0.0000 0.0000
											}
										}
									}
								}
								JOINT Beta:RightHandPinky1
								{
									OFFSET	-9.9715	-0.1191	-3.9540
									CHANNELS 3 Zrotation Xrotation Yrotation
									JOINT Beta:RightHandPinky2
									{
										OFFSET	-3.6528	0.0000	0.0000
										CHANNELS 3 Zrotation Xrotation Yrotation
										JOINT Beta:RightHandPinky3
										{
											OFFSET	-2.7820	0.0000	0.0000
											CHANNELS 3 Zrotation Xrotation Yrotation
											End Site
											{
												OFFSET -2.9000 0.0000 0.0000
											}
										}
									}
								}
							}
						}
					}
				}
			}
		}
	}
	JOINT Beta:LeftUpLeg
	{
		OFFSET	9.6338	-3.2733	0.0000
		CHANNELS 3 Xrotation Yrotation Zrotation
		JOINT Beta:LeftLeg
		{
			OFFSET	0.0000	-41.7300	-1.7300
			CHANNELS 3 Xrotation Yrotation Zrotation
			JOINT Beta:LeftFoot
			{
				OFFSET	0.0126	-39.1900	-0.8477
				CHANNELS 3 Xrotation Yrotation Zrotation
				JOINT Beta:LeftToeBase
				{
					OFFSET	-0.1833	-12.1931	8.2823
					CHANNELS 3 Xrotation Yrotation Zrotation
					End Site
					{
						OFFSET 0.0000 0.0000 10.1681
					}
				}
			}
		}
	}
	JOINT Beta:RightUpLeg
	{
		OFFSET	-9.6338	-3.2733	0.0000
		CHANNELS 3 Xrotation Yrotation Zrotation
		JOINT Beta:RightLeg
		{
			OFFSET	0.0000	-41.7300	-1.7300
			CHANNELS 3 Xrotation Yrotation Zrotation
			JOINT Beta:RightFoot
			{
				OFFSET	0.0126	-39.1900	-0.8477
				CHANNELS 3 Xrotation Yrotation Zrotation
				JOINT Beta:RightToeBase
				{
					OFFSET	-0.1833	-12.1931	8.2823
					CHANNELS 3 Xrotation Yrotation Zrotation
					End Site
					{
						OFFSET 0.0032 0.0000 10.1681
					}
				}
			}
		}
	}
}
MOTION
Frames: 4
Frame Time: 0.0333333
-0.3964 95.8150 0.6990 -5.0462 -4.1988 -2.3926 2.7230 1.7333 2.5246 0.9785 0.4240 1.6132 0.9524 0.4459 1.6169 5.1299 -0.1744 0.6228 -0.0000 0.0000 -0.0000 -7.3956 1.2792 -0.1670 -11.1385 4.5321 -16.0678 -71.2491 20.1566 -2.9672 -0.0000 0.0000 -1.4230 -9.2812 -3.7230 -25.8281 -1.2621 4.7859 8.5754 14.3745 8.6022 13.9491 -4.3898 -7.3978 1.1522 -12.5291 0.0000 -1.3262 -17.4911 0.0000 -0.0000 -18.5032 -0.0000 -0.0000 -4.0790 0.4326 -4.0628 -17.4612 -0.0000 -0.0000 -8.0795 0.0000 0.0000 -18.0279 0.0000 -0.8904 -21.0119 -0.0000 0.0000 -17.9526 -0.0000 -0.0000 -24.1385 -0.0457 0.5632 -17.4915 -0.0000 0.0000 -16.5876 -0.0000 0.0000 14.1585 4.9718 14.1273 60.9474 30.5397 2.4008 -0.0000 0.0000 6.5714 9.1840 -0.0277 -15.2471 1.2621 4.7859 -8.5754 -12.8165 8.9378 -16.2599 0.8031 -9.7624 4.0711 4.0791 0.4326 4.0628 17.4612 0.0000 -0.0000 8.0796 0.0000 0.0000 12.5291 0.0000 1.3262 17.4911 0.0000 -0.0000 18.5032 -0.0000 0.0000 18.0279 0.0000 0.8904 21.0119 0.0000 -0.0000 17.9526 0.0000 0.0000 24.1385 -0.0457 -0.5632 17.4915 0.0000 0.0000 16.5876 -0.0000 0.0000 -9.3675 14.7486 9.6359 12.3294 1.9982 4.2861 0.6767 0.5806 -7.6872 -4.8651 0.0000 -0.0000 3.3117 -10.6550 3.1786 4.8939 -9.7497 -3.2889 -3.5974 -1.5294 2.8893 -6.9034 -0.0000 -0.0000 
-0.3933 95.8170 0.6985 -5.0434 -4.1923 -2.3986 2.7117 1.7336 2.5166 0.9753 0.4243 1.6105 0.9492 0.4462 1.6142 5.1189 -0.1752 0.6163 -0.0000 0.0000 -0.0000 -7.4008 1.2658 -0.1604 -11.1496 4.5344 -16.0740 -71.2493 20.1479 -2.9438 0.0000 -0.0000 -1.4194 -9.2797 -3.7167 -25.8215 -1.2621 4.7859 8.5754 14.3745 8.6022 13.9491 -4.3898 -7.3978 1.1522 -12.5291 -0.0000 -1.3262 -17.4911 0.0000 -0.0000 -18.5032 0.0000 0.0000 -4.0791 0.4326 -4.0628 -17.4612 -0.0000 0.0000 -8.0795 -0.0000 0.0000 -18.0279 -0.0000 -0.8904 -21.0119 0.0000 0.0000 -17.9526 0.0000 0.0000 -24.1385 -0.0457 0.5632 -17.4915 0.0000 0.0000 -16.5876 0.0000 -0.0000 14.1666 4.9715 14.1065 60.9431 30.5668 2.3850 0.0000 0.0000 6.5657 9.1991 -0.0120 -15.2604 1.2621 4.7859 -8.5754 -12.8165 8.9378 -16.2599 0.8031 -9.7624 4.0711 4.0791 0.4326 4.0627 17.4612 -0.0000 0.0000 8.0795 0.0000 -0.0000 12.5291 -0.0000 1.3262 17.4911 0.0000 0.0000 18.5032 0.0000 -0.0000 18.0279 -0.0000 0.8904 21.0119 0.0000 0.0000 17.9526 -0.0000 -0.0000 24.1385 -0.0457 -0.5632 17.4915 0.0000 0.0000 16.5876 0.0000 -0.0000 -9.3677 14.7424 9.6364 12.3147 2.0038 4.2879 0.6831 0.5803 -7.6913 -4.8615 0.0000 0.0000 3.3522 -10.6607 3.1868 4.8001 -9.7484 -3.2808 -3.5464 -1.5196 2.8792 -6.8993 -0.0000 -0.0000 
-0.3910 95.8190 0.6992 -5.0430 -4.1828 -2.4043 2.7047 1.7340 2.5082 0.9731 0.4245 1.6078 0.9470 0.4464 1.6116 5.1083 -0.1745 0.6073 -0.0000 0.0000 -0.0000 -7.4080 1.2595 -0.1598 -11.1629 4.5367 -16.0733 -71.2397 20.1398 -2.9317 -0.0000 -0.0000 -1.4217 -9.2723 -3.7116 -25.8124 -1.2620 4.7859 8.5754 14.3745 8.6022 13.9491 -4.3898 -7.3978 1.1522 -12.5291 0.0000 -1.3262 -17.4911 0.0000 0.0000 -18.5032 -0.0000 -0.0000 -4.0791 0.4326 -4.0628 -17.4612 -0.0000 0.0000 -8.0796 -0.0000 -0.0000 -18.0279 -0.0000 -0.8904 -21.0119 -0.0000 0.0000 -17.9526 0.0000 0.0000 -24.1385 -0.0457 0.5632 -17.4915 -0.0000 -0.0000 -16.5876 0.0000 -0.0000 14.1750 4.9711 14.0836 60.9281 30.6047 2.3861 -0.0000 -0.0000 6.5524 9.2069 0.0065 -15.2842 1.2621 4.7859 -8.5754 -12.8165 8.9378 -16.2599 0.8031 -9.7624 4.0711 4.0790 0.4326 4.0627 17.4612 -0.0000 -0.0000 8.0795 0.0000 -0.0000 12.5291 -0.0000 1.3262 17.4911 0.0000 0.0000 18.5032 0.0000 0.0000 18.0279 0.0000 0.8904 21.0119 0.0000 -0.0000 17.9526 -0.0000 -0.0000 24.1385 -0.0457 -0.5632 17.4915 0.0000 -0.0000 16.5876 0.0000 -0.0000 -9.3729 14.7359 9.6380 12.3051 2.0051 4.2903 0.6905 0.5796 -7.6933 -4.8647 0.0000 0.0000 3.3792 -10.6591 3.1959 4.7260 -9.7474 -3.2779 -3.5017 -1.5143 2.8731 -6.8902 0.0000 0.0000 
-0.3895 95.8198 0.7001 -5.0468 -4.1704 -2.4106 2.7025 1.7332 2.5003 0.9721 0.4242 1.6056 0.9460 0.4461 1.6094 5.0999 -0.1716 0.5970 -0.0000 0.0000 -0.0000 -7.4257 1.2659 -0.1665 -11.1777 4.5389 -16.0639 -71.2213 20.1324 -2.9332 0.0000 0.0000 -1.4252 -9.2515 -3.7098 -25.8045 -1.2621 4.7859 8.5754 14.3745 8.6022 13.9491 -4.3898 -7.3978 1.1522 -12.5291 0.0000 -1.3262 -17.4911 0.0000 -0.0000 -18.5032 -0.0000 -0.0000 -4.0791 0.4326 -4.0628 -17.4612 -0.0000 -0.0000 -8.0796 -0.0000 -0.0000 -18.0279 0.0000 -0.8904 -21.0119 -0.0000 0.0000 -17.9526 0.0000 -0.0000 -24.1385 -0.0457 0.5632 -17.4915 -0.0000 0.0000 -16.5876 0.0000 0.0000 14.1798 4.9710 14.0729 60.9126 30.6245 2.3946 -0.0000 -0.0000 6.5455 9.2029 0.0142 -15.3024 1.2621 4.7859 -8.5754 -12.8165 8.9378 -16.2599 0.8031 -9.7624 4.0711 4.0791 0.4326 4.0628 17.4612 -0.0000 0.0000 8.0795 0.0000 -0.0000 12.5290 -0.0000 1.3262 17.4911 0.0000 0.0000 18.5032 -0.0000 0.0000 18.0279 0.0000 0.8904 21.0119 -0.0000 -0.0000 17.9526 0.0000 -0.0000 24.1385 -0.0457 -0.5632 17.4915 0.0000 -0.0000 16.5876 0.0000 0.0000 -9.3898 14.7298 9.6436 12.3141 2.0051 4.2931 0.6873 0.5798 -7.6951 -4.8710 0.0000 -0.0000 3.3936 -10.6485 3.2072 4.6711 -9.7466 -3.2801 -3.4707 -1.5119 2.8699 -6.8913 0.0000 -0.0000 
